<svg width="32.000000" height="29.000000" viewBox="0 0 32 29" fill="none" xmlns="http://www.w3.org/2000/svg" xmlns:xlink="http://www.w3.org/1999/xlink">
	<desc>
			Created with Pixso.
	</desc>
	<defs>
		<clipPath id="clip2_9">
			<rect id="cart-shopping-solid 1" width="32.000000" height="29.000000" fill="white" fill-opacity="0"/>
		</clipPath>
	</defs>
	<rect id="cart-shopping-solid 1" width="32.000000" height="29.000000" fill="#FFFFFF" fill-opacity="0"/>
	<g clip-path="url(#clip2_9)">
		<path id="Vector" d="M5.33 0C5.97 0 6.52 0.46 6.64 1.1L6.72 1.81L30.1 1.81C31.22 1.81 32.12 2.95 31.81 4.11L28.81 14.99C28.59 15.77 27.89 16.31 27.1 16.31L9.48 16.31L9.99 19.03L27.11 19.03C27.85 19.03 28.44 19.63 28.44 20.39C28.44 21.14 27.85 21.75 27.11 21.75L8.83 21.75C8.25 21.75 7.7 21.28 7.57 20.64L4.23 2.71L1.33 2.71C0.59 2.71 0 2.1 0 1.35C0 0.6 0.59 0 1.33 0L5.33 0ZM7.11 26.28C7.11 24.78 8.3 23.56 9.77 23.56C11.25 23.56 12.44 24.78 12.44 26.28C12.44 27.78 11.25 29 9.77 29C8.3 29 7.11 27.78 7.11 26.28ZM28.44 26.28C28.44 27.78 27.25 29 25.77 29C24.3 29 23.11 27.78 23.11 26.28C23.11 24.78 24.3 23.56 25.77 23.56C27.25 23.56 28.44 24.78 28.44 26.28Z" fill="#FF8F52" fill-opacity="1.000000" fill-rule="nonzero"/>
	</g>
</svg>
