<svg width="24.000000" height="20.000000" viewBox="0 0 24 20" fill="none" xmlns="http://www.w3.org/2000/svg" xmlns:xlink="http://www.w3.org/1999/xlink">
	<desc>
			Created with Pixso.
	</desc>
	<defs>
		<filter id="filter_14_51_dd" x="0.000000" y="0.000000" width="23.157227" height="20.000000" filterUnits="userSpaceOnUse" color-interpolation-filters="sRGB">
			<feFlood flood-opacity="0" result="BackgroundImageFix"/>
			<feColorMatrix in="SourceAlpha" type="matrix" values="0 0 0 0 0 0 0 0 0 0 0 0 0 0 0 0 0 0 127 0" result="hardAlpha"/>
			<feOffset dx="0" dy="4"/>
			<feGaussianBlur stdDeviation="1.33333"/>
			<feComposite in2="hardAlpha" operator="out" k2="-1" k3="1"/>
			<feColorMatrix type="matrix" values="0 0 0 0 0 0 0 0 0 0 0 0 0 0 0 0 0 0 0.25 0"/>
			<feBlend mode="normal" in2="BackgroundImageFix" result="effect_dropShadow_1"/>
			<feBlend mode="normal" in="SourceGraphic" in2="effect_dropShadow_1" result="shape"/>
		</filter>
	</defs>
	<g filter="url(#filter_14_51_dd)">
		<path id="Vector" d="M11.44 3.64C11.4 3.54 11.47 3.42 11.57 3.42C12.97 3.42 14.1 4.55 14.1 6C14.1 7.41 12.97 8.57 11.57 8.57C10.16 8.57 9.05 7.41 9.05 6C9.05 5.89 9.16 5.82 9.26 5.86C9.46 5.94 9.67 6 9.89 6C10.82 6 11.57 5.23 11.57 4.28C11.57 4.05 11.52 3.84 11.44 3.64ZM16.64 2.15C17.87 3.32 18.7 4.69 19.09 5.67C19.17 5.88 19.17 6.11 19.09 6.32C18.7 7.28 17.87 8.65 16.64 9.84C15.4 11.01 13.7 12 11.57 12C9.45 12 7.75 11.01 6.51 9.84C5.27 8.65 4.45 7.28 4.06 6.32C3.97 6.11 3.97 5.88 4.06 5.67C4.45 4.69 5.27 3.32 6.51 2.15C7.75 0.98 9.45 0 11.57 0C13.7 0 15.4 0.98 16.64 2.15ZM11.57 2.14C9.48 2.14 7.78 3.87 7.78 6C7.78 8.12 9.48 9.85 11.57 9.85C13.67 9.85 15.36 8.12 15.36 6C15.36 3.87 13.67 2.14 11.57 2.14Z" fill="#838383" fill-opacity="1.000000" fill-rule="nonzero"/>
	</g>
</svg>
