<svg width="15.000000" height="12.000000" viewBox="0 0 15 12" fill="none" xmlns="http://www.w3.org/2000/svg" xmlns:xlink="http://www.w3.org/1999/xlink">
	<desc>
			Created with Pixso.
	</desc>
	<defs/>
	<path id="Vector" d="M0 4.07L0 3.91C0 2 1.38 0.36 3.27 0.05C4.49 -0.16 5.79 0.25 6.68 1.14L6.69 1.15C6.87 1.33 7.15 1.32 7.32 1.14C8.23 0.25 9.51 -0.16 10.75 0.05C12.64 0.36 14.03 2 14.03 3.91L14.03 4.07C14.03 5.21 13.56 6.3 12.72 7.07L7.77 11.7C7.56 11.89 7.29 12 7.01 12C6.73 12 6.46 11.89 6.25 11.7L1.3 7.07C0.47 6.3 0 5.21 0 4.07Z" fill="#838383" fill-opacity="1.000000" fill-rule="nonzero"/>
</svg>
